<?xml version="1.0" encoding="UTF-8" standalone="no"?>
<!DOCTYPE svg PUBLIC "-//W3C//DTD SVG 1.1//EN" "http://www.w3.org/Graphics/SVG/1.1/DTD/svg11.dtd">
<svg width="100%" height="100%" viewBox="0 0 604 604" version="1.1" xmlns="http://www.w3.org/2000/svg" xmlns:xlink="http://www.w3.org/1999/xlink" xml:space="preserve" xmlns:serif="http://www.serif.com/" style="fill-rule:evenodd;clip-rule:evenodd;stroke-linejoin:round;stroke-miterlimit:2;">
    <g transform="matrix(1,0,0,1,-3241.41,-4870.37)">
        <g transform="matrix(2.66667,0,0,3.375,3918.77,-2252.94)">
            <g transform="matrix(0.979537,2.17999e-47,0,0.773955,-630.643,1577.74)">
                <g>
                    <g transform="matrix(1.46781,0,0,1.75261,-936.984,357.085)">
                        <rect x="909.667" y="196.933" width="138.667" height="116.133" style="fill:rgb(21,49,101);"/>
                    </g>
                    <g transform="matrix(1.66587,0,0,1.98909,-1130.88,296.781)">
                        <path d="M1048.33,313.067L1017.95,313.067L990.916,247.523L1048.33,270.92L1048.33,313.067Z" style="fill:rgb(35,93,218);"/>
                    </g>
                    <g transform="matrix(1.66587,0,0,1.98909,-1130.88,296.781)">
                        <path d="M1006.66,313.067L909.667,313.067L909.667,263.53L920.095,288.815L962.346,306.032L999.347,295.329L1006.66,313.067Z" style="fill:rgb(35,93,218);"/>
                    </g>
                    <g transform="matrix(1.66587,0,0,1.98909,-1130.88,296.781)">
                        <path d="M952.232,196.933L969.697,196.933L939.417,249.054L946.081,265.21L964.433,272.689L983.725,267.108L986.054,263.098L995.626,286.308L963.088,295.72L929.325,281.963L916.995,252.065L952.232,196.933Z" style="fill:rgb(35,93,218);"/>
                    </g>
                    <g transform="matrix(1.66587,0,0,1.98909,-1130.88,296.781)">
                        <path d="M1048.33,260.985L967.638,228.103L962.605,229.559L981.559,196.933L1048.33,196.933L1048.33,260.985Z" style="fill:rgb(35,93,218);"/>
                    </g>
                    <g transform="matrix(1.66587,0,0,1.98909,-1130.88,296.781)">
                        <path d="M956.006,240.919L950.942,249.635L954.72,258.796L965.127,263.037L976.066,259.873L981.13,251.157L977.351,241.995L966.945,237.755L956.006,240.919Z" style="fill:rgb(116,159,200);"/>
                    </g>
                </g>
            </g>
        </g>
    </g>
</svg>
